<svg xmlns="http://www.w3.org/2000/svg" xmlns:xlink="http://www.w3.org/1999/xlink" width="2380" zoomAndPan="magnify" viewBox="0 0 1784.88 1784.99993" height="2380" preserveAspectRatio="xMidYMid meet" version="1.0"><defs><clipPath id="914fcb9cd6"><path d="M 0 0.0585938 L 1784.761719 0.0585938 L 1784.761719 598 L 0 598 Z M 0 0.0585938 " clip-rule="nonzero"/></clipPath><clipPath id="e63b8fc690"><path d="M 2043.265625 623.777344 L -166.761719 415.1875 L -68.738281 -623.378906 L 2141.289062 -414.789062 Z M 2043.265625 623.777344 " clip-rule="nonzero"/></clipPath><clipPath id="6807aa482e"><path d="M 2043.265625 623.777344 L -166.761719 415.1875 L -68.738281 -623.378906 L 2141.289062 -414.789062 Z M 2043.265625 623.777344 " clip-rule="nonzero"/></clipPath></defs><g clip-path="url(#914fcb9cd6)"><g clip-path="url(#e63b8fc690)"><g clip-path="url(#6807aa482e)"><path fill="#da7e7e" d="M 2042.097656 597.28125 L 2137.722656 -415.871094 L -64.652344 -623.738281 L -154.40625 327.230469 C -124.265625 310.621094 -97.253906 292.378906 -74.609375 272.75 C 262.640625 -20.660156 801.347656 112.496094 1140.828125 317.191406 C 1396.207031 471.269531 1725.824219 593.691406 2042.097656 597.28125 Z M 2042.097656 597.28125 " fill-opacity="1" fill-rule="evenodd"/></g></g></g></svg>