<svg xmlns="http://www.w3.org/2000/svg" xmlns:xlink="http://www.w3.org/1999/xlink" width="2380" zoomAndPan="magnify" viewBox="0 0 1784.88 1784.99993" height="2380" preserveAspectRatio="xMidYMid meet" version="1.0"><defs><clipPath id="30e73e6530"><path d="M 0 0.0585938 L 1784.761719 0.0585938 L 1784.761719 776 L 0 776 Z M 0 0.0585938 " clip-rule="nonzero"/></clipPath><clipPath id="5e4a3c7343"><path d="M 2023.714844 802.25 L -186.3125 593.660156 L -88.289062 -444.902344 L 2121.738281 -236.3125 Z M 2023.714844 802.25 " clip-rule="nonzero"/></clipPath><clipPath id="8fa949dc05"><path d="M 2023.714844 802.25 L -186.3125 593.660156 L -88.289062 -444.902344 L 2121.738281 -236.3125 Z M 2023.714844 802.25 " clip-rule="nonzero"/></clipPath></defs><g clip-path="url(#30e73e6530)"><g clip-path="url(#5e4a3c7343)"><g clip-path="url(#8fa949dc05)"><path fill="#d96666" d="M 2022.546875 775.757812 L 2118.171875 -237.394531 L -84.203125 -445.261719 L -173.957031 505.707031 C -143.816406 489.097656 -116.804688 470.855469 -94.160156 451.226562 C 243.089844 157.816406 781.796875 290.972656 1121.277344 495.667969 C 1376.65625 649.746094 1706.273438 772.167969 2022.546875 775.757812 Z M 2022.546875 775.757812 " fill-opacity="1" fill-rule="evenodd"/></g></g></g></svg>