<svg xmlns="http://www.w3.org/2000/svg" xmlns:xlink="http://www.w3.org/1999/xlink" width="2380" zoomAndPan="magnify" viewBox="0 0 1784.88 1784.99993" height="2380" preserveAspectRatio="xMidYMid meet" version="1.0"><defs><clipPath id="c405ffaf9b"><path d="M 0 0.0585938 L 1784.761719 0.0585938 L 1784.761719 910 L 0 910 Z M 0 0.0585938 " clip-rule="nonzero"/></clipPath><clipPath id="05db84f1b0"><path d="M 2012.542969 997.765625 L -197.484375 789.175781 L -99.460938 -249.390625 L 2110.566406 -40.800781 Z M 2012.542969 997.765625 " clip-rule="nonzero"/></clipPath><clipPath id="d40c98e4ce"><path d="M -197.707031 789.15625 L 2012.320312 997.746094 L 2110.34375 -40.820312 L -99.683594 -249.410156 Z M -197.707031 789.15625 " clip-rule="nonzero"/></clipPath></defs><g clip-path="url(#c405ffaf9b)"><g clip-path="url(#05db84f1b0)"><g clip-path="url(#d40c98e4ce)"><path fill="#a72727" d="M -191.601562 763.347656 L -95.976562 -249.804688 L 2106.394531 -41.9375 L 2016.640625 909.027344 C 1990.140625 887.074219 1967.019531 864.101562 1948.445312 840.582031 C 1672.046875 489.253906 1117.941406 519.269531 746.15625 656.832031 C 466.457031 760.40625 119.757812 818.996094 -191.601562 763.347656 Z M -191.601562 763.347656 " fill-opacity="1" fill-rule="evenodd"/></g></g></g></svg>