<svg xmlns="http://www.w3.org/2000/svg" xmlns:xlink="http://www.w3.org/1999/xlink" width="2380" zoomAndPan="magnify" viewBox="0 0 1784.88 1784.99993" height="2380" preserveAspectRatio="xMidYMid meet" version="1.0"><defs><clipPath id="5b358ead7e"><path d="M 0 0.0585938 L 1784.761719 0.0585938 L 1784.761719 1366 L 0 1366 Z M 0 0.0585938 " clip-rule="nonzero"/></clipPath><clipPath id="0a14d75883"><path d="M 1988.792969 1391.765625 L -1099.632812 1453.378906 L -1128.59375 1.765625 L 1959.832031 -59.847656 Z M 1988.792969 1391.765625 " clip-rule="nonzero"/></clipPath><clipPath id="484991279f"><path d="M 1988.792969 1391.765625 L -1099.632812 1453.378906 L -1128.59375 1.765625 L 1959.832031 -59.847656 Z M 1988.792969 1391.765625 " clip-rule="nonzero"/></clipPath></defs><g clip-path="url(#5b358ead7e)"><g clip-path="url(#0a14d75883)"><g clip-path="url(#484991279f)"><path fill="#ef9f9f" d="M 1982.96875 1355.324219 L 1954.726562 -60.328125 L -1122.597656 1.066406 L -1096.085938 1329.828125 C -1057.054688 1302.097656 -1022.601562 1272.605469 -994.410156 1241.886719 C -574.675781 782.890625 191.078125 881.660156 692.765625 1110.859375 C 1070.183594 1283.410156 1545.207031 1400.445312 1982.96875 1355.324219 Z M 1982.96875 1355.324219 " fill-opacity="1" fill-rule="evenodd"/></g></g></g></svg>