<svg xmlns="http://www.w3.org/2000/svg" xmlns:xlink="http://www.w3.org/1999/xlink" width="2380" zoomAndPan="magnify" viewBox="0 0 1784.88 1784.99993" height="2380" preserveAspectRatio="xMidYMid meet" version="1.0"><defs><clipPath id="c42f83e31c"><path d="M 0 0.0585938 L 908.1875 0.0585938 L 908.1875 555.773438 L 0 555.773438 Z M 0 0.0585938 " clip-rule="nonzero"/></clipPath><clipPath id="a6186730a0"><path d="M 0 0.0585938 L 864 0.0585938 L 864 495 L 0 495 Z M 0 0.0585938 " clip-rule="nonzero"/></clipPath><clipPath id="7a8e7a95a5"><path d="M 0 0.0585938 L 806 0.0585938 L 806 425 L 0 425 Z M 0 0.0585938 " clip-rule="nonzero"/></clipPath></defs><g clip-path="url(#c42f83e31c)"><path fill="#a72727" d="M 908.175781 0.0585938 C 908.175781 0.0585938 733.296875 270.453125 453.484375 277.179688 C 173.675781 283.90625 0.140625 555.644531 0.140625 555.644531 L 0.140625 0.0585938 Z M 908.175781 0.0585938 " fill-opacity="1" fill-rule="nonzero"/></g><g clip-path="url(#a6186730a0)"><path fill="#d96666" d="M 863.785156 0.0585938 C 809.046875 70.414062 652.957031 242.203125 430.617188 247.582031 C 210.265625 252.882812 55.820312 422.464844 0.140625 494.382812 L 0.140625 0.0585938 Z M 863.785156 0.0585938 " fill-opacity="1" fill-rule="nonzero"/></g><g clip-path="url(#7a8e7a95a5)"><path fill="#da7e7e" d="M 0.140625 0.0585938 L 805.46875 0.0585938 C 733.738281 80.613281 592.652344 205.371094 403.710938 209.917969 C 212.230469 214.519531 70.523438 343.230469 0.140625 424.027344 Z M 0.140625 0.0585938 " fill-opacity="1" fill-rule="nonzero"/></g></svg>