<svg xmlns="http://www.w3.org/2000/svg" xmlns:xlink="http://www.w3.org/1999/xlink" width="2380" zoomAndPan="magnify" viewBox="0 0 1784.88 1784.99993" height="2380" preserveAspectRatio="xMidYMid meet" version="1.0"><defs><clipPath id="ab15f6061f"><path d="M 393.023438 0.0585938 L 1784.753906 0.0585938 L 1784.753906 851.253906 L 393.023438 851.253906 Z M 393.023438 0.0585938 " clip-rule="nonzero"/></clipPath><clipPath id="2a02da9afb"><path d="M 461 0.0585938 L 1784.753906 0.0585938 L 1784.753906 758 L 461 758 Z M 461 0.0585938 " clip-rule="nonzero"/></clipPath><clipPath id="51607fd9c1"><path d="M 550 0.0585938 L 1784.753906 0.0585938 L 1784.753906 650 L 550 650 Z M 550 0.0585938 " clip-rule="nonzero"/></clipPath></defs><g clip-path="url(#ab15f6061f)"><path fill="#a72727" d="M 393.234375 0.0585938 C 393.234375 0.0585938 661.1875 414.359375 1089.917969 424.667969 C 1518.648438 434.972656 1784.542969 851.335938 1784.542969 851.335938 L 1784.542969 0.0585938 Z M 393.234375 0.0585938 " fill-opacity="1" fill-rule="nonzero"/></g><g clip-path="url(#2a02da9afb)"><path fill="#d96666" d="M 461.253906 0.0585938 C 545.125 107.859375 784.285156 371.074219 1124.957031 379.320312 C 1462.582031 387.441406 1699.230469 647.277344 1784.542969 757.46875 L 1784.542969 0.0585938 Z M 461.253906 0.0585938 " fill-opacity="1" fill-rule="nonzero"/></g><g clip-path="url(#51607fd9c1)"><path fill="#da7e7e" d="M 1784.542969 0.0585938 L 550.605469 0.0585938 C 660.507812 123.484375 876.6875 314.640625 1166.183594 321.605469 C 1459.574219 328.65625 1676.699219 525.871094 1784.542969 649.667969 Z M 1784.542969 0.0585938 " fill-opacity="1" fill-rule="nonzero"/></g></svg>